Coordinates
version=1
nRows=29
nColumns=24
inDegrees=yes

Units are S.I. units (second, meters, Newtons, ...)
Angles are in degrees.

endheader
time	pelvis_tilt	pelvis_list	pelvis_rotation	pelvis_tx	pelvis_ty	pelvis_tz	hip_flexion_r	hip_adduction_r	hip_rotation_r	knee_angle_r	ankle_angle_r	subtalar_angle_r	mtp_angle_r	hip_flexion_l	hip_adduction_l	hip_rotation_l	knee_angle_l	ankle_angle_l	subtalar_angle_l	mtp_angle_l	lumbar_extension	lumbar_bending	lumbar_rotation
     12.27000000	     45.64497632	     -4.65388763	     -0.85715006	      0.57445394	      1.08514772	     -0.34025780	     26.13005231	     -6.43052538	     -7.61565928	    -73.72045457	    -23.62329735	    -14.82663226	      0.00000000	     26.67423840	    -19.30329782	     -5.91045708	    -76.36092403	    -28.33414380	      3.63628673	      0.00000000	      0.00000000	      0.00000000	      0.00000000
     12.28000000	     45.65450164	     -4.65260956	     -0.85582293	      0.57444733	      1.08515927	     -0.34024984	     26.11781420	     -6.43287736	     -7.61012002	    -73.72158731	    -23.54001674	    -14.74514321	      0.00000000	     26.66000026	    -19.29630235	     -5.95054324	    -76.25196128	    -28.33708104	      3.59547875	      0.00000000	      0.00000000	      0.00000000	      0.00000000
     12.29000000	     45.66372192	     -4.65249622	     -0.85624723	      0.57444185	      1.08517505	     -0.34024090	     26.10408171	     -6.43239626	     -7.60373660	    -73.72026834	    -23.44284115	    -14.66130878	      0.00000000	     26.64514999	    -19.29126510	     -5.99066124	    -76.14432610	    -28.34157298	      3.55135931	      0.00000000	      0.00000000	      0.00000000	      0.00000000
     12.30000000	     45.67127229	     -4.65302124	     -0.85811622	      0.57443349	      1.08519710	     -0.34022962	     26.08958419	     -6.42827454	     -7.59608147	    -73.71330617	    -23.35335368	    -14.59808346	      0.00000000	     26.63171432	    -19.28720935	     -6.02884572	    -76.03964302	    -28.34591759	      3.51155886	      0.00000000	      0.00000000	      0.00000000	      0.00000000
     12.31000000	     45.67641324	     -4.65346817	     -0.86048622	      0.57442341	      1.08522113	     -0.34021910	     26.07567573	     -6.42108978	     -7.58710955	    -73.69910827	    -23.30203790	    -14.58427332	      0.00000000	     26.62204548	    -19.28278739	     -6.06365752	    -75.93991693	    -28.34836475	      3.48148264	      0.00000000	      0.00000000	      0.00000000	      0.00000000
     12.32000000	     45.67931162	     -4.65320768	     -0.86267691	      0.57441403	      1.08524535	     -0.34021396	     26.06466549	     -6.41379640	     -7.57868332	    -73.67992587	    -23.32522315	    -14.64997701	      0.00000000	     26.61803673	    -19.27704125	     -6.09446086	    -75.84688510	    -28.34775925	      3.46360417	      0.00000000	      0.00000000	      0.00000000	      0.00000000
     12.33000000	     45.68100496	     -4.65199775	     -0.86504253	      0.57440142	      1.08526462	     -0.34021686	     26.06046762	     -6.41143346	     -7.57613059	    -73.66300853	    -23.45924190	    -14.82066443	      0.00000000	     26.61957166	    -19.26959704	     -6.12161294	    -75.76130137	    -28.34400723	      3.45749966	      0.00000000	      0.00000000	      0.00000000	      0.00000000
     12.34000000	     45.68325699	     -4.65011343	     -0.86877176	      0.57437559	      1.08525184	     -0.34023203	     26.06916702	     -6.41921836	     -7.58848984	    -73.65925761	    -23.73187617	    -15.11110556	      0.00000000	     26.62312608	    -19.26021745	     -6.14642241	    -75.68263782	    -28.33823190	      3.46050936	      0.00000000	      0.00000000	      0.00000000	      0.00000000
     12.35000000	     45.68863407	     -4.64801807	     -0.87480274	      0.57433239	      1.08518850	     -0.34026536	     26.09830289	     -6.44003604	     -7.62605576	    -73.67892948	    -24.15263353	    -15.52059099	      0.00000000	     26.62235847	    -19.24843396	     -6.17060130	    -75.60944856	    -28.33249268	      3.46874225	      0.00000000	      0.00000000	      0.00000000	      0.00000000
     12.36000000	     45.70005198	     -4.64563973	     -0.88293383	      0.57428533	      1.08512718	     -0.34032243	     26.15307089	     -6.47294621	     -7.69500252	    -73.72589627	    -24.70493685	    -16.03075597	      0.00000000	     26.61178117	    -19.23393012	     -6.19526616	    -75.54006304	    -28.32904673	      3.47807112	      0.00000000	      0.00000000	      0.00000000	      0.00000000
     12.37000000	     45.71819929	     -4.64266578	     -0.89175775	      0.57425317	      1.08515248	     -0.34040344	     26.22985760	     -6.51389943	     -7.79127305	    -73.79371843	    -25.34410542	    -16.60684548	      0.00000000	     26.59130510	    -19.21725464	     -6.22018696	    -75.47322065	    -28.32943888	      3.48492115	      0.00000000	      0.00000000	      0.00000000	      0.00000000
     12.38000000	     45.73853821	     -4.63988920	     -0.89912825	      0.57423105	      1.08524242	     -0.34049120	     26.31285328	     -6.55773913	     -7.89867611	    -73.86660491	    -26.00412032	    -17.20247356	      0.00000000	     26.56734567	    -19.19997386	     -6.24391242	    -75.40852954	    -28.33390021	      3.48684257	      0.00000000	      0.00000000	      0.00000000	      0.00000000
     12.39000000	     45.75372348	     -4.63870926	     -0.90291490	      0.57419957	      1.08528227	     -0.34056392	     26.38113347	     -6.59885773	     -7.99546434	    -73.92571721	    -26.61292292	    -17.76706034	      0.00000000	     26.54875041	    -19.18408917	     -6.26457953	    -75.34665306	    -28.34136843	      3.48288377	      0.00000000	      0.00000000	      0.00000000	      0.00000000
     12.40000000	     45.76013452	     -4.63900306	     -0.90197015	      0.57416223	      1.08523788	     -0.34061919	     26.42185635	     -6.63101400	     -8.06573581	    -73.95776131	    -27.11093930	    -18.25445793	      0.00000000	     26.54075476	    -19.17112940	     -6.28081628	    -75.28908168	    -28.35006058	      3.47370537	      0.00000000	      0.00000000	      0.00000000	      0.00000000
     12.41000000	     45.75962356	     -4.63915644	     -0.89680594	      0.57413982	      1.08518198	     -0.34065459	     26.43568912	     -6.64942001	     -8.10595795	    -73.96084082	    -27.46481243	    -18.63092994	      0.00000000	     26.54224349	    -19.16149529	     -6.29222079	    -75.23748978	    -28.35818534	      3.46129731	      0.00000000	      0.00000000	      0.00000000	      0.00000000
     12.42000000	     45.75602809	     -4.63817094	     -0.88929369	      0.57413785	      1.08517337	     -0.34065832	     26.43188657	     -6.65398980	     -8.12292120	    -73.94396366	    -27.67142889	    -18.88068909	      0.00000000	     26.54811992	    -19.15439207	     -6.29920965	    -75.19305280	    -28.36442428	      3.44828549	      0.00000000	      0.00000000	      0.00000000	      0.00000000
     12.43000000	     45.75227399	     -4.63663779	     -0.88141719	      0.57414388	      1.08520460	     -0.34063941	     26.42118747	     -6.64995619	     -8.12740850	    -73.92100695	    -27.75281205	    -19.00766359	      0.00000000	     26.55376807	    -19.14829837	     -6.30246747	    -75.15625492	    -28.36812480	      3.43707151	      0.00000000	      0.00000000	      0.00000000	      0.00000000
     12.44000000	     45.74958785	     -4.63572715	     -0.87403798	      0.57414688	      1.08524100	     -0.34062766	     26.41159596	     -6.64507258	     -8.12864333	    -73.90357850	    -27.74578553	    -19.03304024	      0.00000000	     26.55777120	    -19.14163636	     -6.30247361	    -75.12723621	    -28.36930475	      3.42915156	      0.00000000	      0.00000000	      0.00000000	      0.00000000
     12.45000000	     45.74765598	     -4.63579989	     -0.86666018	      0.57414613	      1.08525940	     -0.34064447	     26.40726404	     -6.64560286	     -8.13176740	    -73.89691198	    -27.69078011	    -18.98928164	      0.00000000	     26.56168592	    -19.13323892	     -6.29947531	    -75.10617703	    -28.36854070	      3.42486204	      0.00000000	      0.00000000	      0.00000000	      0.00000000
     12.46000000	     45.74517364	     -4.63600313	     -0.85829693	      0.57414665	      1.08525454	     -0.34068870	     26.40913427	     -6.65370599	     -8.13805587	    -73.89994823	    -27.62283884	    -18.91231787	      0.00000000	     26.56815798	    -19.12260839	     -6.29381714	    -75.09325201	    -28.36676578	      3.42359015	      0.00000000	      0.00000000	      0.00000000	      0.00000000
     12.47000000	     45.74059785	     -4.63497840	     -0.84861558	      0.57415115	      1.08523249	     -0.34074447	     26.41619492	     -6.66741636	     -8.14649718	    -73.90819553	    -27.56622112	    -18.83399309	      0.00000000	     26.57899694	    -19.11012273	     -6.28626477	    -75.08824406	    -28.36501481	      3.42429943	      0.00000000	      0.00000000	      0.00000000	      0.00000000
     12.48000000	     45.73281262	     -4.63191647	     -0.83842999	      0.57415647	      1.08520365	     -0.34079386	     26.42670067	     -6.68255229	     -8.15548114	    -73.91707236	    -27.53277244	    -18.77652810	      0.00000000	     26.59404638	    -19.09711348	     -6.27808261	    -75.09031296	    -28.36417969	      3.42613132	      0.00000000	      0.00000000	      0.00000000	      0.00000000
     12.49000000	     45.72170328	     -4.62702434	     -0.82941037	      0.57416198	      1.08518058	     -0.34082166	     26.43905745	     -6.69492286	     -8.16384047	    -73.92396191	    -27.52335912	    -18.75003278	      0.00000000	     26.61118714	    -19.08568297	     -6.27084226	    -75.09818451	    -28.36481319	      3.42884503	      0.00000000	      0.00000000	      0.00000000	      0.00000000
     12.50000000	     45.70851686	     -4.62132234	     -0.82350589	      0.57417403	      1.08517170	     -0.34082354	     26.45212202	     -6.70178783	     -8.17088477	    -73.92850146	    -27.53121693	    -18.75323780	      0.00000000	     26.62732242	    -19.07827295	     -6.26606091	    -75.11063405	    -28.36698413	      3.43291992	      0.00000000	      0.00000000	      0.00000000	      0.00000000
     12.51000000	     45.69562569	     -4.61644720	     -0.82223413	      0.57419484	      1.08517587	     -0.34080729	     26.46498425	     -6.70257207	     -8.17565796	    -73.93169661	    -27.54607911	    -18.77680777	      0.00000000	     26.63965753	    -19.07706910	     -6.26480690	    -75.12699006	    -28.37020585	      3.43927148	      0.00000000	      0.00000000	      0.00000000	      0.00000000
     12.52000000	     45.68552572	     -4.61427282	     -0.82599209	      0.57421556	      1.08518495	     -0.34077687	     26.47656423	     -6.69857552	     -8.17662768	    -73.93483104	    -27.55816283	    -18.80805164	      0.00000000	     26.64651626	    -19.08328627	     -6.26743424	    -75.14737564	    -28.37350061	      3.44869695	      0.00000000	      0.00000000	      0.00000000	      0.00000000
     12.53000000	     45.67976523	     -4.61556992	     -0.83407564	      0.57422635	      1.08519021	     -0.34073527	     26.48554887	     -6.69135866	     -8.17285493	    -73.93880606	    -27.56123483	    -18.83568593	      0.00000000	     26.64745983	    -19.09655372	     -6.27346478	    -75.17255129	    -28.37564200	      3.46127304	      0.00000000	      0.00000000	      0.00000000	      0.00000000
     12.54000000	     45.67856032	     -4.61915365	     -0.84522091	      0.57422921	      1.08519196	     -0.34069437	     26.49082479	     -6.68149318	     -8.16525666	    -73.94380085	    -27.55414849	    -18.85349036	      0.00000000	     26.64311208	    -19.11482812	     -6.28154746	    -75.20343341	    -28.37552117	      3.47593552	      0.00000000	      0.00000000	      0.00000000	      0.00000000
     12.55000000	     45.68085097	     -4.62312841	     -0.85777354	      0.57423496	      1.08519655	     -0.34066220	     26.49181757	     -6.66927387	     -8.15603759	    -73.94898065	    -27.54073960	    -18.86206052	      0.00000000	     26.63506931	    -19.13502306	     -6.28956354	    -75.24054822	    -28.37250857	      3.49041521	      0.00000000	      0.00000000	      0.00000000	      0.00000000
